<svg width="931" height="126" viewBox="0 0 931 126" fill="none" xmlns="http://www.w3.org/2000/svg">
<rect width="931" height="126" fill="white"/>
<path d="M72.4956 29.3699C74.9814 25.4039 77.8329 20.8543 76.3589 14.4762C74.4976 6.59065 67.7724 0 67.7724 0C67.7724 0 64.7587 9.82182 66.6113 17.7124C67.4432 21.2179 70.115 26.1507 71.8279 29.3133L71.8289 29.3151L71.8369 29.3298C71.9468 29.5328 72.0527 29.7284 72.154 29.9158C72.2338 29.7878 72.3143 29.6593 72.3952 29.5302L72.4875 29.3828L72.4933 29.3735L72.4956 29.3699Z" fill="#998A50"/>
<path d="M71.7293 41.8226C72.1187 36.6561 72.7601 32.1062 77.164 27.3936C82.3753 21.7993 90.251 18.5005 90.251 18.5005C90.251 18.5005 89.7972 28.2765 83.7911 34.5143C81.2857 37.115 73.8673 41.1659 71.7293 41.8226Z" fill="#998A50"/>
<path fill-rule="evenodd" clip-rule="evenodd" d="M57.9857 51.2061C56.5528 52.0667 55.3768 52.9765 54.6066 54.231C54.5311 53.268 54.3865 52.3093 54.173 51.3623C54.173 51.3623 52.1692 52.7288 50.7997 56.6312L50.7826 56.5842C50.2383 58.1646 49.9223 59.6175 50.1387 61.0736C49.4618 60.3845 48.7348 59.743 47.9625 59.1548C47.9625 59.1548 47.306 61.4897 48.7656 65.3594L48.7223 65.3343C49.3212 66.8949 50.0131 68.2109 51.1149 69.1872C50.1534 69.0944 49.1841 69.0704 48.2144 69.1163C48.2144 69.1163 49.2125 71.3269 52.818 73.3528L52.7688 73.3615C54.2308 74.1718 55.6068 74.7351 57.0783 74.7747C56.2822 75.3218 55.5243 75.9264 54.811 76.585C54.811 76.585 56.9965 77.6366 61.0607 76.8708L61.0286 76.9091C62.6694 76.59 64.0855 76.137 65.2382 75.2214C64.98 76.1522 64.7881 77.1026 64.6651 78.0655C64.6651 78.0655 67.0153 77.4662 69.6362 74.2669L69.6361 74.3169C70.6879 73.0178 71.4815 71.7604 71.7758 70.3181C72.1764 71.1971 72.6404 72.0484 73.1651 72.8651C73.1651 72.8651 74.5801 70.8953 74.5312 66.7598L74.5633 66.7981C74.5338 65.1269 74.3334 63.6536 73.6317 62.3595C74.5036 62.7753 75.4063 63.1292 76.3333 63.4175C76.3333 63.4175 76.1509 60.999 73.455 57.8626L73.5042 57.8713C72.4073 56.6101 71.3068 55.6104 69.9374 55.0702C70.8726 54.8282 71.7915 54.519 72.6869 54.1439C72.6869 54.1439 70.9925 52.4086 66.9113 51.7391L66.9546 51.7141C65.3068 51.4536 63.8236 51.395 62.4298 51.8586C62.9901 51.0732 63.495 50.2469 63.9396 49.3854C63.9396 49.3854 61.5262 49.1441 57.9686 51.253L57.9857 51.2061ZM62 74C67.5229 74 72 69.5229 72 64C72 58.4772 67.5229 54 62 54C56.4772 54 52 58.4772 52 64C52 69.5229 56.4772 74 62 74Z" fill="#998A50"/>
<path d="M73.9359 42.6851C69.2348 44.0822 67.8634 46.7673 66.3399 50.1291C69.2145 50.1147 72.0781 49.7891 74.8805 49.1587C74.3478 50.9098 73.9823 52.7083 73.7894 54.53C73.9527 54.4659 74.1154 54.4034 74.2772 54.3413C76.2546 53.5817 78.0874 52.8777 79.1525 50.0338C79.4456 49.094 79.6771 48.1381 79.8466 47.1724C80.7368 46.6569 81.5726 46.0958 82.3301 45.5393C81.8449 47.4837 81.4996 49.4618 81.2976 51.4583C81.5769 51.284 81.8705 51.1088 82.1735 50.928C84.3463 49.6313 87.0016 48.0468 88.3292 44.4133L88.3205 44.4626C89.4578 40.8772 89.9627 37.1213 89.8126 33.3629C89.8126 33.3629 85.5087 37.2222 83.5203 41.747C82.5468 41.7048 81.3889 41.689 80.1442 41.7419C80.1393 41.6658 80.134 41.5898 80.1284 41.5137C80.0378 41.5934 79.9479 41.6739 79.8589 41.7551C77.951 41.8516 75.8602 42.1138 73.9272 42.69L73.9359 42.6851Z" fill="#998A50"/>
<path d="M69.6594 31.8752C70.9782 35.5119 69.9628 38.4326 69.1319 40.8226C69.016 41.1559 68.9037 41.4788 68.8019 41.7919C67.6772 40.1386 66.6733 38.4079 65.7972 36.6134C65.574 37.5252 65.2939 38.4903 64.9431 39.4551C65.4309 40.2997 65.8654 41.1762 66.243 42.0796C67.2552 44.9428 66.3039 46.6603 65.2775 48.5132L65.2761 48.5156L65.2703 48.5261L65.2657 48.5344C65.1856 48.679 65.1051 48.8245 65.0251 48.9714C64.0036 47.4544 63.1286 45.8447 62.4117 44.1639C60.6706 46.4442 58.6874 48.5307 56.4964 50.3863C55.5042 46.8313 54.83 43.8926 57.535 39.8017L57.5316 39.8111C58.6384 38.1341 60.0654 36.5954 61.4603 35.2989C61.4769 35.1745 61.4946 35.0501 61.5136 34.9259L61.5868 35.0014C61.6176 35.0333 61.6483 35.0653 61.679 35.0974C62.5967 34.2587 63.4924 33.5279 64.2649 32.9348C62.875 28.1885 63.6922 22.457 63.6922 22.457C66.2232 25.2395 68.2508 28.4411 69.6844 31.9186L69.6594 31.8752Z" fill="#998A50"/>
<path d="M83.5202 53.3637C87.1397 49.6564 90.5559 46.5834 96.9587 45.8045C104.547 44.8692 112.7 47.405 112.7 47.405C112.7 47.405 106.068 54.6018 97.4577 55.5191C93.8667 55.9007 85.5801 54.235 83.5202 53.3637Z" fill="#998A50"/>
<path d="M84.6561 55.4428C80.1569 53.491 77.3804 54.6663 74.0523 56.2621C76.2636 58.0989 78.6664 59.6903 81.2183 61.0089C79.6845 62.0078 78.2484 63.1505 76.9296 64.4219C77.0959 64.4779 77.2608 64.5346 77.4246 64.591C79.4276 65.2802 81.2841 65.9191 83.9282 64.4254C84.7568 63.8938 85.5486 63.3105 86.2992 62.6797C87.3124 62.8571 88.3134 62.9645 89.2514 63.0252C87.6298 64.2027 86.0937 65.496 84.6555 66.8955C84.9813 66.9414 85.3185 66.9959 85.6665 67.0521C88.1645 67.4557 91.2179 67.949 94.5705 66.0191L94.5322 66.0512C97.7082 64.0359 100.509 61.4834 102.81 58.508C102.81 58.508 97.0327 58.6975 92.6009 60.8853C91.8823 60.2273 91.0055 59.4708 90.0181 58.7111C90.0632 58.6497 90.108 58.5881 90.1526 58.5262C90.032 58.529 89.9115 58.5329 89.791 58.5379C88.2676 57.3854 86.4975 56.2422 84.6463 55.441L84.6561 55.4428Z" fill="#998A50"/>
<path d="M92.1123 44.3174C96.5659 42.8773 101.675 41.2253 104.646 35.3921C108.289 28.1553 107.374 18.7836 107.374 18.7836C107.374 18.7836 98.7518 24.3699 95.0986 31.605C93.4824 34.8251 92.3581 40.321 91.6372 43.8447L91.6367 43.8471C91.5893 44.079 91.5436 44.3024 91.4996 44.516C91.7023 44.45 91.9066 44.3839 92.1123 44.3174Z" fill="#998A50"/>
<path d="M85.1333 69.7838C90.289 69.2707 94.8812 69.1128 100.287 72.6321C106.7 76.7935 111.316 83.9772 111.316 83.9772C111.316 83.9772 101.609 85.2268 94.424 80.3943C91.4279 78.3783 86.1511 71.7754 85.1333 69.7838Z" fill="#998A50"/>
<path d="M84.6669 72.1066C82.4751 67.7193 79.5927 66.8347 76.0176 65.9177C76.5307 68.7462 77.3483 71.5098 78.4554 74.1604C76.6384 73.9396 74.8038 73.8917 72.9762 74.0179C73.0677 74.1676 73.1575 74.317 73.2467 74.4655C74.3379 76.2811 75.3494 77.9639 78.335 78.5194C79.3114 78.6449 80.2929 78.7071 81.2734 78.7063C81.9355 79.4936 82.6331 80.2193 83.3127 80.8688C81.3136 80.7283 79.3056 80.7316 77.3043 80.8791C77.5245 81.1239 77.748 81.3826 77.9786 81.6496C79.6326 83.5645 81.6539 85.9046 85.4626 86.5814L85.4126 86.5814C89.141 87.0793 92.9275 86.9247 96.6028 86.1246C96.6028 86.1246 92.0552 82.5558 87.254 81.3828C87.1266 80.4168 86.9412 79.2737 86.6732 78.057L86.7705 78.0331L86.8345 78.0171L86.8951 78.0018C86.8009 77.9264 86.7061 77.852 86.6106 77.7784C86.1845 75.9162 85.5635 73.9026 84.6605 72.0989L84.6669 72.1066Z" fill="#998A50"/>
<path d="M97.5301 68.3775C101.867 70.1373 106.843 72.156 112.868 69.5975C120.311 66.396 125.635 58.6291 125.635 58.6291C125.635 58.6291 115.439 57.3656 107.99 60.5594C104.682 61.987 100.288 65.4741 97.4703 67.7098C97.2842 67.8575 97.1047 68 96.9331 68.1358C97.1308 68.2155 97.3298 68.2962 97.5301 68.3775Z" fill="#998A50"/>
<path d="M75.8136 83.3987C80.0927 86.3199 83.7119 89.1509 85.5901 95.3215C87.8281 102.632 86.7456 111.102 86.7456 111.102C86.7456 111.102 78.5071 105.819 76.1095 97.4988C75.1105 94.0285 75.3129 85.5785 75.8136 83.3987Z" fill="#998A50"/>
<path d="M73.9631 84.8782C75.1045 80.1085 73.4652 77.578 71.3161 74.5774C69.8909 77.0739 68.7406 79.7163 67.8849 82.4584C66.6349 81.1213 65.2603 79.9053 63.7794 78.8271C63.7533 78.9995 63.7262 79.1707 63.6993 79.3408L63.6988 79.3439C63.3676 81.4361 63.0605 83.3753 64.9905 85.72C65.6578 86.4438 66.3696 87.1224 67.1212 87.7522C67.1223 88.7808 67.1902 89.7852 67.2932 90.7195C65.8521 89.3269 64.3119 88.0386 62.6841 86.8651C62.6954 87.1941 62.7003 87.536 62.7053 87.8887C62.7413 90.4188 62.7854 93.5107 65.2678 96.4775L65.2295 96.4454C67.7654 99.2234 70.7653 101.539 74.0949 103.289C74.0949 103.289 72.9056 97.6317 69.9819 93.6468C70.5052 92.8249 71.0981 91.8302 71.6749 90.7259L71.7556 90.7657L71.8135 90.794L71.8803 90.8263C71.8566 90.708 71.8319 90.59 71.806 90.4722C72.6767 88.7719 73.4954 86.8303 73.9631 84.8682V84.8782Z" fill="#998A50"/>
<path d="M86.2137 90.2905C88.4047 94.4266 90.9182 99.1713 97.1785 101.085C104.938 103.417 114.009 100.89 114.009 100.89C114.009 100.89 107.011 93.3676 99.2514 91.0254C95.7997 89.9925 90.1919 89.839 86.5966 89.7406L85.9118 89.7216C86.0119 89.9097 86.1124 90.0994 86.2137 90.2905Z" fill="#998A50"/>
<path d="M59.9225 87.8368C61.3225 92.8252 62.275 97.3204 59.7471 103.254C56.7619 110.293 50.4882 116.085 50.4882 116.085C50.4882 116.085 47.5731 106.743 51.0853 98.8278C52.5508 95.5274 58.1377 89.1848 59.9225 87.8368Z" fill="#998A50"/>
<path d="M57.554 87.7806C61.4944 84.8607 61.8654 81.8685 62.148 78.1885C59.4515 79.1846 56.8717 80.4694 54.4535 82.0197C54.3556 80.192 54.0843 78.3769 53.6429 76.599C53.5113 76.715 53.3798 76.8294 53.249 76.9431C51.6504 78.3328 50.1686 79.6209 50.1397 82.6576C50.1855 83.641 50.2946 84.6184 50.4655 85.5839C49.8051 86.3726 49.2114 87.1856 48.6898 87.9675C48.4811 85.9743 48.1295 83.9974 47.6369 82.052C47.4341 82.3113 47.2179 82.5764 46.9951 82.8498C45.3963 84.8111 43.4425 87.2078 43.4369 91.0762L43.4282 91.0269C43.5849 94.7851 44.3943 98.4873 45.82 101.968C45.82 101.968 48.5455 96.8701 48.8675 91.9382C49.7968 91.645 50.8903 91.2642 52.042 90.789C52.0726 90.8588 52.1036 90.9285 52.1349 90.998C52.1928 90.8922 52.2497 90.7858 52.3056 90.679C54.0656 89.9363 55.9408 88.9752 57.5604 87.7729L57.554 87.7806Z" fill="#998A50"/>
<path d="M63.4588 99.8015C62.4784 104.378 61.3537 109.629 64.9191 115.119C69.3636 121.893 77.9365 125.788 77.9365 125.788C77.9365 125.788 77.4115 115.528 72.9734 108.745C70.9933 105.735 66.7964 102.013 64.1057 99.6264C63.9279 99.4688 63.7568 99.317 63.5933 99.1716C63.5491 99.3801 63.5041 99.5901 63.4588 99.8015Z" fill="#998A50"/>
<path d="M44.8969 81.0212C42.7626 85.7424 40.6026 89.7979 34.8516 92.7185C28.0402 96.1911 19.5112 96.595 19.5112 96.595C19.5112 96.595 23.2837 87.5648 31.0621 83.7596C34.3063 82.1735 42.6632 80.9064 44.8969 81.0212Z" fill="#998A50"/>
<path d="M43.1187 79.4556C48.0141 79.7519 50.2217 77.6984 52.8038 75.0611C50.0979 74.0908 47.2959 73.4165 44.4469 73.0496C45.5469 71.5866 46.5059 70.0219 47.3107 68.3762C47.1353 68.3805 46.961 68.3836 46.7877 68.3866C44.6698 68.4234 42.7067 68.4576 40.7325 70.7651C40.1355 71.5479 39.5908 72.3667 39.101 73.2162C38.0881 73.3958 37.1108 73.6369 36.2085 73.9006C37.3299 72.2397 38.3314 70.4992 39.2046 68.6925C38.8825 68.7607 38.5467 68.8248 38.2001 68.891C35.7147 69.3656 32.6774 69.9455 30.1864 72.9051L30.2114 72.8618C27.9156 75.8414 26.1557 79.1976 25.0103 82.7803C25.0103 82.7803 30.3751 80.6273 33.7922 77.0564C34.6924 77.4292 35.7749 77.8405 36.9626 78.2168C36.9412 78.29 36.9201 78.3632 36.8994 78.4366C37.0118 78.3927 37.1237 78.3479 37.2352 78.302C39.0608 78.8644 41.1151 79.3337 43.1286 79.4538L43.1187 79.4556Z" fill="#998A50"/>
<path d="M39.9144 92.4595C36.2213 95.3351 31.9848 98.6339 31.1868 105.131C30.2365 113.178 34.2997 121.672 34.2997 121.672C34.2997 121.672 40.4931 113.475 41.4533 105.427C41.8714 101.848 41.0494 96.2991 40.5225 92.7413L40.4223 92.0634C40.2545 92.1947 40.085 92.3266 39.9144 92.4595Z" fill="#998A50"/>
<path d="M37.7684 66.1414C33.0986 68.3859 28.837 70.104 22.5542 68.6443C15.1044 66.9258 8.31147 61.7524 8.31147 61.7524C8.31147 61.7524 17.0061 57.2603 25.4105 59.3456C28.9152 60.2162 36.1311 64.6177 37.7684 66.1414Z" fill="#998A50"/>
<path d="M37.4127 63.7991C40.9721 67.173 43.9833 67.0191 47.6565 66.6588C46.2075 64.176 44.4945 61.8584 42.5481 59.7459C44.3311 59.3323 46.0716 58.7501 47.7459 58.0069C47.6094 57.8979 47.4744 57.7886 47.3403 57.68L47.3387 57.6787C45.6927 56.3455 44.1669 55.1097 41.1713 55.6082C40.2108 55.8241 39.2672 56.1011 38.346 56.437C37.4546 55.9234 36.551 55.4799 35.6903 55.1018C37.6171 54.5504 39.503 53.861 41.3333 53.0383C41.0427 52.8836 40.7443 52.7168 40.4363 52.5447C38.2273 51.3105 35.5279 49.8023 31.7172 50.4681L31.7642 50.451C28.0903 51.2576 24.5847 52.6971 21.4042 54.7052C21.4042 54.7052 26.8978 56.5047 31.8108 55.9659C32.2607 56.8302 32.8256 57.8411 33.4934 58.8929C33.43 58.9351 33.3667 58.9777 33.3037 59.0206C33.418 59.0592 33.5326 59.0968 33.6474 59.1333C34.6844 60.7377 35.9563 62.4177 37.4214 63.8041L37.4127 63.7991Z" fill="#998A50"/>
<path d="M26.5989 71.7004C21.9215 71.5291 16.5557 71.3326 11.7677 75.7966C5.86735 81.3493 3.51927 90.4681 3.51927 90.4681C3.51927 90.4681 13.5328 88.1705 19.4418 82.6228C22.0625 80.1504 25.0001 75.3712 26.8836 72.3071C27.0079 72.1048 27.1278 71.9097 27.2426 71.7235L26.9312 71.7125L26.5989 71.7004Z" fill="#998A50"/>
<path d="M41.8731 50.161C36.8531 48.8784 32.4842 47.4549 28.61 42.2981C24.008 36.1927 22.1302 27.8632 22.1302 27.8632C22.1302 27.8632 31.678 30.0114 36.7753 37.0113C38.9004 39.9311 41.5984 47.9413 41.8731 50.161Z" fill="#998A50"/>
<path d="M43.1063 48.1381C43.664 53.0106 46.0695 54.8284 49.1149 56.9137C49.6009 54.0804 49.7786 51.2039 49.6456 48.3345C51.2773 49.1638 52.9847 49.8368 54.745 50.3438C54.7104 50.1718 54.6771 50.0007 54.6441 49.8306C54.2402 47.7512 53.8659 45.8238 51.2508 44.28C50.3763 43.8279 49.4754 43.4335 48.5538 43.0986C48.2011 42.1323 47.7941 41.2116 47.3778 40.3687C49.2082 41.1849 51.096 41.8692 53.0269 42.4156C52.9038 42.1102 52.7824 41.7907 52.6571 41.4609C51.7584 39.0956 50.6601 36.2049 47.3131 34.2652L47.3601 34.2824C44.0274 32.5385 40.4167 31.3877 36.6895 30.8814C36.6895 30.8814 39.7409 35.7912 43.8506 38.5368C43.6396 39.488 43.4225 40.6255 43.258 41.8604C43.1822 41.852 43.1064 41.844 43.0305 41.8363C43.0932 41.9394 43.1569 42.0418 43.2214 42.1436C42.9843 44.0392 42.8787 46.1437 43.1097 48.1475L43.1063 48.1381Z" fill="#998A50"/>
<path d="M29.7437 47.2391C26.2708 44.1011 22.2869 40.5013 15.7496 40.8429C7.66048 41.3034 0 46.7791 0 46.7791C0 46.7791 9.14746 51.4561 17.24 51.005C20.8367 50.7958 26.1589 49.0234 29.5713 47.887L29.5774 47.8849C29.8008 47.8106 30.0159 47.7389 30.2219 47.6706C30.0638 47.5284 29.9049 47.3848 29.7449 47.2403L29.7437 47.2391Z" fill="#998A50"/>
<path d="M55.29 40.5584C52.2692 36.349 49.8376 32.4502 50.1849 26.0095C50.5844 18.3744 54.5005 10.7868 54.5005 10.7868C54.5005 10.7868 60.4333 18.57 59.8381 27.2087C59.5889 30.8114 56.5065 38.6816 55.29 40.5584Z" fill="#998A50"/>
<path d="M41.2691 16.6278C46.4963 20.5685 47.234 25.8869 47.877 30.5232C47.9067 30.7373 47.9362 30.95 47.9659 31.1611C47.7626 31.0803 47.5499 30.9962 47.329 30.9088C43.9845 29.5857 38.7679 27.5219 35.8783 25.3701C29.3894 20.5135 25.3888 11.0506 25.3888 11.0506C25.3888 11.0506 34.7768 11.7806 41.2691 16.6278Z" fill="#998A50"/>
<path d="M152.36 89C151.928 88.568 151.928 86.768 152.36 86.264L158.696 85.328L177.848 38.24C178.424 37.736 180.296 37.736 180.8 38.24L199.952 85.328L206.288 86.264C206.72 86.768 206.72 88.568 206.288 89H183.176C182.816 88.568 182.816 86.768 183.176 86.264L190.376 85.328L184.544 70.28H168.776L163.016 85.328L171.152 86.264C171.512 86.768 171.512 88.568 171.152 89H152.36ZM176.624 49.904L170.072 66.896H183.248L176.624 49.904ZM253.289 42.992L245.585 42.056C245.153 41.552 245.153 39.752 245.585 39.32H264.593C265.025 39.752 265.025 41.552 264.593 42.056L257.465 42.992V70.856C257.465 81.584 250.265 89.72 238.241 89.72C227.369 89.72 218.585 83.528 218.585 69.992V42.992L211.817 42.056C211.385 41.552 211.385 39.752 211.817 39.32H234.425C234.785 39.752 234.785 41.552 234.425 42.056L227.585 42.992V68.912C227.585 79.568 233.129 83.96 240.689 83.96C248.177 83.96 253.289 78.848 253.289 70.352V42.992ZM314.397 89H286.029C285.669 88.568 285.669 86.768 286.029 86.264L295.677 85.112V42.488C286.461 42.488 281.709 45.584 276.021 53.936C274.941 53.936 273.717 53.072 273.717 52.28L277.821 43.928V39.32H322.533V43.928L326.709 52.28C326.709 53.072 325.485 53.936 324.333 53.936C318.717 45.584 313.965 42.488 304.749 42.488V85.112L314.397 86.264C314.757 86.768 314.757 88.568 314.397 89ZM337.42 89C336.988 88.568 336.988 86.768 337.42 86.264L344.188 85.328V42.992L337.42 42.056C336.988 41.552 336.988 39.752 337.42 39.32H359.956C360.388 39.752 360.388 41.552 359.956 42.056L353.188 42.992V62.144H377.02V42.992L370.252 42.056C369.82 41.552 369.82 39.752 370.252 39.32H392.788C393.22 39.752 393.22 41.552 392.788 42.056L386.02 42.992V85.328L392.788 86.264C393.22 86.768 393.22 88.568 392.788 89H370.252C369.82 88.568 369.82 86.768 370.252 86.264L377.02 85.328V65.528H353.188V85.328L359.956 86.264C360.388 86.768 360.388 88.568 359.956 89H337.42ZM452.894 64.16C452.894 78.416 442.166 89.72 429.062 89.72C415.886 89.72 405.158 78.416 405.158 64.16C405.158 49.904 415.886 38.6 429.062 38.6C442.166 38.6 452.894 49.904 452.894 64.16ZM415.454 64.16C415.454 77.264 420.206 85.832 429.062 85.832C437.846 85.832 442.598 77.264 442.598 64.16C442.598 51.056 437.846 42.488 429.062 42.488C420.206 42.488 415.454 51.056 415.454 64.16ZM481.143 85.328L487.911 86.264C488.271 86.768 488.271 88.568 487.911 89H465.375C464.943 88.568 464.943 86.768 465.375 86.264L472.143 85.328V42.992L465.375 42.056C464.943 41.552 464.943 39.752 465.375 39.32H486.615C498.495 39.32 507.279 43.712 507.279 52.928C507.279 60.848 500.727 65.384 494.463 66.752C500.439 76.328 504.759 81.368 508.503 83.744C511.671 85.616 515.199 85.976 519.087 86.192C519.447 86.696 519.447 88.568 519.087 89H501.159C496.335 84.536 490.287 74.528 486.759 66.896C484.527 66.536 482.655 65.888 481.143 65.096V85.328ZM481.143 42.776V62.648C482.871 63.44 484.383 63.728 486.759 63.728C492.807 63.728 497.847 59.84 497.847 52.568C497.847 45.152 492.375 42.488 484.887 42.488C483.375 42.488 481.143 42.776 481.143 42.776ZM559.347 55.592C555.387 47.24 550.779 42.344 544.515 42.344C539.619 42.344 536.091 45.44 536.091 50.264C536.091 62.504 563.163 56.384 563.163 73.592C563.163 82.88 554.379 89.72 544.155 89.72C538.683 89.72 533.067 88.136 528.603 85.76L529.107 81.296L525.507 72.584C525.579 71.648 527.163 70.568 528.243 70.928C532.779 80.648 538.179 85.904 545.091 85.904C549.987 85.904 554.883 83.096 554.883 77.192C554.883 64.304 528.603 71.216 528.603 53.936C528.603 44.792 536.811 38.6 545.811 38.6C551.355 38.6 555.963 40.328 559.131 42.416L558.843 46.664L561.939 53.936C561.939 54.728 560.427 55.592 559.347 55.592ZM638.447 42.992L630.743 42.056C630.311 41.552 630.311 39.752 630.743 39.32H649.751C650.183 39.752 650.183 41.552 649.751 42.056L642.623 42.992V70.856C642.623 81.584 635.423 89.72 623.399 89.72C612.527 89.72 603.743 83.528 603.743 69.992V42.992L596.975 42.056C596.543 41.552 596.543 39.752 596.975 39.32H619.583C619.943 39.752 619.943 41.552 619.583 42.056L612.743 42.992V68.912C612.743 79.568 618.287 83.96 625.847 83.96C633.335 83.96 638.447 78.848 638.447 70.352V42.992ZM671.197 85.328L678.901 86.264C679.261 86.768 679.261 88.568 678.901 89H659.893C659.461 88.568 659.461 86.768 659.893 86.264L667.021 85.328V43.568C664.933 42.56 662.413 42.344 658.957 42.056C658.525 41.552 658.525 39.752 658.957 39.32L676.093 39.176L701.509 73.952V42.992L693.805 42.056C693.445 41.552 693.445 39.752 693.805 39.32H712.885C713.245 39.752 713.245 41.552 712.885 42.056L705.757 42.992V89.216C705.181 89.792 703.093 89.936 702.445 89.648L671.197 47.384V85.328ZM723.984 89C723.552 88.568 723.552 86.768 723.984 86.264L730.752 85.328V42.992L723.984 42.056C723.552 41.552 723.552 39.752 723.984 39.32H746.52C746.952 39.752 746.952 41.552 746.52 42.056L739.752 42.992V85.328L746.52 86.264C746.952 86.768 746.952 88.568 746.52 89H723.984ZM797.908 89H769.54C769.18 88.568 769.18 86.768 769.54 86.264L779.188 85.112V42.488C769.972 42.488 765.22 45.584 759.532 53.936C758.452 53.936 757.228 53.072 757.228 52.28L761.332 43.928V39.32H806.044V43.928L810.22 52.28C810.22 53.072 808.996 53.936 807.844 53.936C802.228 45.584 797.476 42.488 788.26 42.488V85.112L797.908 86.264C798.268 86.768 798.268 88.568 797.908 89ZM820.931 89C820.499 88.568 820.499 86.768 820.931 86.264L827.699 85.328V42.992L820.931 42.056C820.499 41.552 820.499 39.752 820.931 39.32H859.019V43.928L863.195 52.28C863.195 53.072 861.971 53.936 860.819 53.936C854.987 45.44 851.027 42.488 836.699 42.488V62.504H840.659C846.419 62.504 848.003 60.848 848.723 53.504C849.155 53 851.171 53 851.603 53.504L850.811 64.16L851.603 74.384C851.171 74.888 849.155 74.888 848.723 74.384C848.003 67.04 846.419 65.384 840.659 65.384H836.699V85.832C853.115 85.832 858.947 82.664 865.067 73.016C866.219 73.016 867.299 73.664 867.371 74.672L862.547 84.32V89H820.931ZM878.405 39.32H895.109C910.589 39.32 927.941 45.008 927.941 62.864C927.941 80.72 911.021 89 895.109 89H878.405C877.973 88.568 877.973 86.768 878.405 86.264L885.173 85.328V42.992L878.405 42.056C877.973 41.552 877.973 39.752 878.405 39.32ZM894.173 42.272V85.904C906.917 85.904 917.717 78.848 917.717 63.008C917.717 47.384 906.917 42.272 894.173 42.272Z" fill="black"/>
</svg>
