<svg width="411" height="102" viewBox="0 0 411 102" fill="none" xmlns="http://www.w3.org/2000/svg">
<rect width="409" height="102" fill="white"/>
<path d="M54.8183 26.1813C56.698 23.186 58.8542 19.75 57.7396 14.933C56.3322 8.97752 51.2468 4 51.2468 4C51.2468 4 48.968 11.4178 50.3688 17.3771C50.9979 20.0246 53.0182 23.7501 54.3134 26.1385L54.3142 26.1399L54.3202 26.151C54.4033 26.3043 54.4834 26.4521 54.56 26.5936C54.6204 26.497 54.6812 26.3999 54.7424 26.3023L54.8122 26.1911L54.8166 26.1841L54.8183 26.1813Z" fill="#998A50"/>
<path d="M54.2388 35.5861C54.5333 31.6841 55.0183 28.2478 58.3484 24.6887C62.289 20.4637 68.2442 17.9723 68.2442 17.9723C68.2442 17.9723 67.9011 25.3556 63.3595 30.0665C61.465 32.0307 55.8555 35.0901 54.2388 35.5861Z" fill="#998A50"/>
<path fill-rule="evenodd" clip-rule="evenodd" d="M43.8465 42.6728C42.763 43.3229 41.8738 44.01 41.2913 44.9574C41.2342 44.2301 41.1249 43.506 40.9635 42.7908C40.9635 42.7908 39.4483 43.8229 38.4127 46.7701L38.3998 46.7347C37.9882 47.9282 37.7493 49.0255 37.9129 50.1252C37.4011 49.6047 36.8513 49.1203 36.2673 48.6761C36.2673 48.6761 35.7709 50.4395 36.8746 53.362L36.8419 53.3431C37.2948 54.5217 37.818 55.5156 38.6511 56.2529C37.924 56.1829 37.1911 56.1647 36.4578 56.1994C36.4578 56.1994 37.2126 57.8689 39.9389 59.3989L39.9017 59.4055C41.0072 60.0175 42.0476 60.4429 43.1603 60.4728C42.5583 60.886 41.9853 61.3427 41.4459 61.84C41.4459 61.84 43.0985 62.6343 46.1717 62.0559L46.1474 62.0848C47.3881 61.8438 48.4589 61.5017 49.3305 60.8101C49.1353 61.5131 48.9902 62.2309 48.8972 62.9582C48.8972 62.9582 50.6743 62.5055 52.6561 60.0893L52.6561 60.1271C53.4514 59.1459 54.0515 58.1963 54.274 57.107C54.5769 57.7708 54.9278 58.4138 55.3246 59.0306C55.3246 59.0306 56.3945 57.5429 56.3575 54.4197L56.3818 54.4486C56.3595 53.1864 56.208 52.0737 55.6774 51.0964C56.3367 51.4104 57.0193 51.6777 57.7202 51.8954C57.7202 51.8954 57.5823 50.0688 55.5438 47.7001L55.581 47.7067C54.7516 46.7542 53.9194 45.9991 52.8839 45.5912C53.591 45.4084 54.2859 45.1749 54.963 44.8916C54.963 44.8916 53.6817 43.581 50.5957 43.0754L50.6284 43.0565C49.3824 42.8598 48.2609 42.8156 47.207 43.1657C47.6307 42.5725 48.0124 41.9485 48.3486 41.2978C48.3486 41.2978 46.5237 41.1156 43.8336 42.7083L43.8465 42.6728ZM46.882 59.8877C51.0581 59.8877 54.4436 56.5064 54.4436 52.3353C54.4436 48.1643 51.0581 44.7829 46.882 44.7829C42.7058 44.7829 39.3203 48.1643 39.3203 52.3353C39.3203 56.5064 42.7058 59.8877 46.882 59.8877Z" fill="#998A50"/>
<path d="M55.9074 36.2374C52.3526 37.2926 51.3156 39.3206 50.1636 41.8595C52.3373 41.8486 54.5026 41.6027 56.6217 41.1266C56.2189 42.4491 55.9425 43.8074 55.7966 45.1832C55.9201 45.1348 56.0432 45.0876 56.1655 45.0407C57.6607 44.467 59.0466 43.9353 59.852 41.7875C60.0736 41.0777 60.2487 40.3558 60.3768 39.6264C61.05 39.2372 61.682 38.8134 62.2548 38.3931C61.8879 39.8616 61.6268 41.3555 61.474 42.8634C61.6852 42.7317 61.9072 42.5994 62.1363 42.4628C63.7794 41.4836 65.7872 40.2868 66.7911 37.5427L66.7845 37.5799C67.6444 34.8721 68.0262 32.0355 67.9127 29.197C67.9127 29.197 64.6583 32.1117 63.1547 35.529C62.4186 35.4972 61.5431 35.4852 60.6019 35.5251C60.5982 35.4677 60.5942 35.4102 60.5899 35.3528C60.5214 35.413 60.4535 35.4738 60.3862 35.5351C58.9435 35.608 57.3625 35.806 55.9009 36.2412L55.9074 36.2374Z" fill="#998A50"/>
<path d="M52.6737 28.0735C53.6709 30.82 52.9031 33.0258 52.2748 34.8309C52.1872 35.0825 52.1023 35.3264 52.0253 35.5629C51.1749 34.3142 50.4157 33.0071 49.7533 31.6519C49.5845 32.3405 49.3727 33.0694 49.1074 33.7981C49.4763 34.4359 49.8048 35.0979 50.0904 35.7802C50.8558 37.9426 50.1364 39.2397 49.3602 40.6391L49.3592 40.6409L49.3548 40.6489L49.3513 40.6551C49.2908 40.7643 49.2299 40.8742 49.1694 40.9851C48.397 39.8395 47.7354 38.6237 47.1933 37.3543C45.8767 39.0765 44.3771 40.6523 42.7204 42.0537C41.9701 39.3689 41.4603 37.1494 43.5057 34.0598L43.5031 34.0669C44.34 32.8004 45.4191 31.6383 46.4739 30.6591C46.4864 30.5651 46.4998 30.4712 46.5141 30.3774L46.5695 30.4344C46.5928 30.4585 46.616 30.4827 46.6392 30.507C47.3332 29.8736 48.0105 29.3216 48.5946 28.8737C47.5436 25.2891 48.1615 20.9604 48.1615 20.9604C50.0753 23.0619 51.6086 25.4798 52.6926 28.1062L52.6737 28.0735Z" fill="#998A50"/>
<path d="M63.1547 44.3024C65.8916 41.5025 68.4748 39.1816 73.3164 38.5934C79.0542 37.887 85.2194 39.8022 85.2194 39.8022C85.2194 39.8022 80.2046 45.2375 73.6937 45.9302C70.9783 46.2184 64.7123 44.9604 63.1547 44.3024Z" fill="#998A50"/>
<path d="M64.0136 45.8726C60.6115 44.3985 58.512 45.2861 55.9954 46.4914C57.6675 47.8786 59.4844 49.0804 61.4141 50.0763C60.2543 50.8308 59.1684 51.6938 58.1711 52.654C58.2969 52.6962 58.4215 52.7391 58.5454 52.7817C60.06 53.3022 61.4638 53.7847 63.4632 52.6566C64.0897 52.2552 64.6885 51.8146 65.256 51.3382C66.0222 51.4722 66.7791 51.5533 67.4884 51.5991C66.2622 52.4884 65.1007 53.4652 64.0132 54.5221C64.2595 54.5568 64.5145 54.598 64.7776 54.6404C66.6665 54.9452 68.9754 55.3178 71.5105 53.8602L71.4816 53.8845C73.8831 52.3624 76.0012 50.4347 77.7411 48.1875C77.7411 48.1875 73.3723 48.3307 70.0211 49.983C69.4777 49.486 68.8148 48.9147 68.0681 48.341C68.1022 48.2946 68.1362 48.2481 68.1698 48.2013C68.0786 48.2034 67.9875 48.2064 67.8964 48.2102C66.7444 47.3397 65.406 46.4763 64.0062 45.8713L64.0136 45.8726Z" fill="#998A50"/>
<path d="M69.6517 37.4702C73.0193 36.3826 76.8825 35.135 79.1289 30.7295C81.8839 25.264 81.192 18.1861 81.192 18.1861C81.192 18.1861 74.6722 22.4051 71.9098 27.8694C70.6877 30.3013 69.8375 34.452 69.2925 37.1132L69.2921 37.1151C69.2562 37.2902 69.2216 37.4589 69.1884 37.6202C69.3416 37.5704 69.4961 37.5205 69.6517 37.4702Z" fill="#998A50"/>
<path d="M64.3744 56.7035C68.273 56.316 71.7454 56.1967 75.8328 58.8546C80.6826 61.9975 84.1726 67.4229 84.1726 67.4229C84.1726 67.4229 76.833 68.3666 71.3997 64.717C69.1342 63.1944 65.1441 58.2076 64.3744 56.7035Z" fill="#998A50"/>
<path d="M64.0218 58.4578C62.3644 55.1443 60.1849 54.4762 57.4815 53.7837C57.8695 55.9199 58.4877 58.007 59.3249 60.0088C57.9509 59.8421 56.5637 59.806 55.1818 59.9012C55.2509 60.0143 55.3188 60.1272 55.3863 60.2393C56.2114 61.6105 56.9762 62.8814 59.2338 63.301C59.9721 63.3957 60.7143 63.4427 61.4557 63.4421C61.9564 64.0367 62.4839 64.5848 62.9978 65.0753C61.4861 64.9693 59.9678 64.9717 58.4544 65.0831C58.6209 65.268 58.7899 65.4634 58.9643 65.665C60.215 67.1112 61.7435 68.8785 64.6235 69.3897L64.5857 69.3897C67.4049 69.7657 70.2681 69.649 73.0472 69.0447C73.0472 69.0447 69.6085 66.3494 65.978 65.4635C65.8817 64.7339 65.7415 63.8706 65.5388 62.9517L65.6124 62.9337L65.6608 62.9216L65.7066 62.9101C65.6354 62.8531 65.5637 62.7969 65.4915 62.7413C65.1693 61.3349 64.6997 59.8142 64.0169 58.452L64.0218 58.4578Z" fill="#998A50"/>
<path d="M73.7484 55.6414C77.0281 56.9705 80.7903 58.4951 85.3465 56.5628C90.9745 54.1449 95 48.279 95 48.279C95 48.279 87.2903 47.3248 81.6574 49.7368C79.1562 50.8151 75.8335 53.4486 73.7032 55.1372C73.5625 55.2487 73.4267 55.3563 73.297 55.4588C73.4465 55.519 73.5969 55.58 73.7484 55.6414Z" fill="#998A50"/>
<path d="M57.3272 66.986C60.563 69.1922 63.2996 71.3303 64.7199 75.9906C66.4121 81.5118 65.5936 87.9085 65.5936 87.9085C65.5936 87.9085 59.364 83.919 57.551 77.6349C56.7956 75.014 56.9487 68.6323 57.3272 66.986Z" fill="#998A50"/>
<path d="M55.928 68.1033C56.7911 64.5011 55.5515 62.59 53.9264 60.3238C52.8487 62.2092 51.979 64.2049 51.3319 66.2759C50.3867 65.266 49.3473 64.3476 48.2274 63.5333C48.2077 63.6636 48.1873 63.7928 48.1669 63.9213L48.1665 63.9237C47.9161 65.5037 47.6839 66.9683 49.1432 68.7392C49.6478 69.2858 50.1861 69.7983 50.7544 70.2739C50.7552 71.0508 50.8065 71.8093 50.8845 72.515C49.7948 71.4632 48.6301 70.4902 47.3992 69.6039C47.4078 69.8525 47.4115 70.1106 47.4153 70.3771C47.4425 72.2879 47.4759 74.623 49.353 76.8637L49.324 76.8394C51.2415 78.9374 53.5099 80.6863 56.0277 82.0078C56.0277 82.0078 55.1283 77.7353 52.9175 74.7258C53.3133 74.1051 53.7616 73.3538 54.1977 72.5198L54.2588 72.5498L54.3026 72.5712L54.3531 72.5956C54.3351 72.5063 54.3164 72.4171 54.2969 72.3282C54.9553 71.0441 55.5743 69.5777 55.928 68.0958V68.1033Z" fill="#998A50"/>
<path d="M65.1914 72.191C66.8482 75.3147 68.7488 78.8981 73.4826 80.3432C79.3499 82.1046 86.2088 80.1958 86.2088 80.1958C86.2088 80.1958 80.9173 74.5149 75.05 72.746C72.4399 71.9659 68.1996 71.85 65.4809 71.7756L64.9631 71.7613C65.0388 71.9034 65.1148 72.0467 65.1914 72.191Z" fill="#998A50"/>
<path d="M45.311 70.3378C46.3697 74.1053 47.0899 77.5002 45.1784 81.9818C42.9211 87.2977 38.1772 91.6721 38.1772 91.6721C38.1772 91.6721 35.9729 84.6164 38.6287 78.6387C39.7369 76.1461 43.9615 71.3559 45.311 70.3378Z" fill="#998A50"/>
<path d="M43.5201 70.2954C46.4996 68.0901 46.7801 65.8304 46.9939 63.0511C44.9548 63.8034 43.0041 64.7737 41.1756 65.9446C41.1015 64.5642 40.8964 63.1933 40.5627 61.8506C40.4632 61.9382 40.3637 62.0246 40.2648 62.1105C39.056 63.16 37.9355 64.1328 37.9136 66.4263C37.9483 67.169 38.0308 67.9071 38.16 68.6363C37.6607 69.232 37.2118 69.846 36.8173 70.4366C36.6595 68.9312 36.3936 67.4382 36.0211 65.9689C35.8678 66.1647 35.7043 66.365 35.5358 66.5715C34.3269 68.0527 32.8495 69.8628 32.8453 72.7844L32.8387 72.7472C32.9572 75.5855 33.5692 78.3815 34.6473 81.0103C34.6473 81.0103 36.7082 77.1601 36.9517 73.4354C37.6544 73.214 38.4813 72.9263 39.3521 72.5675C39.3753 72.6202 39.3987 72.6728 39.4223 72.7253C39.4661 72.6454 39.5092 72.5651 39.5514 72.4844C40.8823 71.9234 42.3002 71.1976 43.5249 70.2896L43.5201 70.2954Z" fill="#998A50"/>
<path d="M47.985 79.374C47.2437 82.8306 46.3933 86.7958 49.0893 90.9421C52.45 96.0584 58.9325 99 58.9325 99C58.9325 99 58.5355 91.251 55.1796 86.1289C53.6823 83.8556 50.5088 81.0443 48.4742 79.2418C48.3398 79.1228 48.2104 79.0081 48.0867 78.8983C48.0533 79.0558 48.0193 79.2144 47.985 79.374Z" fill="#998A50"/>
<path d="M33.9492 65.1904C32.3354 68.756 30.702 71.819 26.3534 74.0247C21.2029 76.6474 14.7536 76.9523 14.7536 76.9523C14.7536 76.9523 17.6062 70.1324 23.4879 67.2585C25.9411 66.0607 32.2602 65.1038 33.9492 65.1904Z" fill="#998A50"/>
<path d="M32.6047 64.008C36.3064 64.2318 37.9757 62.6809 39.9282 60.6891C37.8821 59.9563 35.7633 59.4471 33.609 59.17C34.4407 58.065 35.1659 56.8833 35.7745 55.6404C35.6418 55.6437 35.51 55.646 35.379 55.6482C33.7776 55.6761 32.2931 55.7019 30.8003 57.4446C30.3489 58.0358 29.937 58.6542 29.5666 59.2958C28.8007 59.4314 28.0617 59.6135 27.3794 59.8126C28.2274 58.5583 28.9847 57.2438 29.645 55.8793C29.4014 55.9308 29.1475 55.9792 28.8854 56.0292C27.006 56.3876 24.7094 56.8256 22.8257 59.0609L22.8447 59.0282C21.1087 61.2784 19.7779 63.8131 18.9118 66.519C18.9118 66.519 22.9685 64.8929 25.5523 62.1961C26.233 62.4776 27.0516 62.7882 27.9497 63.0725C27.9334 63.1277 27.9175 63.183 27.9018 63.2384C27.9868 63.2053 28.0715 63.1714 28.1558 63.1368C29.5362 63.5615 31.0896 63.9159 32.6121 64.0067L32.6047 64.008Z" fill="#998A50"/>
<path d="M30.1817 73.8291C27.3891 76.0008 24.1856 78.4922 23.5822 83.3992C22.8636 89.4761 25.936 95.8915 25.936 95.8915C25.936 95.8915 30.6193 89.7008 31.3453 83.6226C31.6615 80.9199 31.04 76.7289 30.6415 74.0419L30.5658 73.5299C30.4388 73.6291 30.3107 73.7287 30.1817 73.8291Z" fill="#998A50"/>
<path d="M28.559 53.9526C25.0278 55.6477 21.8054 56.9453 17.0546 55.8429C11.4213 54.545 6.28481 50.6379 6.28481 50.6379C6.28481 50.6379 12.8594 47.2452 19.2144 48.8202C21.8645 49.4777 27.3209 52.8018 28.559 53.9526Z" fill="#998A50"/>
<path d="M28.29 52.1836C30.9815 54.7317 33.2584 54.6155 36.036 54.3434C34.9403 52.4683 33.645 50.7179 32.1732 49.1225C33.5214 48.8101 34.8375 48.3704 36.1036 47.8091C36.0003 47.7268 35.8983 47.6442 35.7968 47.5622L35.7957 47.5612C34.551 46.5543 33.3973 45.6211 31.1321 45.9975C30.4058 46.1605 29.6923 46.3698 28.9957 46.6234C28.3217 46.2356 27.6384 45.9006 26.9876 45.6151C28.4445 45.1987 29.8706 44.678 31.2546 44.0567C31.0349 43.9398 30.8092 43.8138 30.5763 43.6839C28.906 42.7518 26.8648 41.6127 23.9833 42.1155L24.0189 42.1026C21.2408 42.7117 18.59 43.7989 16.185 45.3156C16.185 45.3156 20.3391 46.6746 24.054 46.2677C24.3943 46.9204 24.8214 47.6839 25.3264 48.4782C25.2784 48.5101 25.2306 48.5423 25.1829 48.5747C25.2693 48.6039 25.356 48.6323 25.4429 48.6598C26.227 49.8715 27.1887 51.1403 28.2966 52.1874L28.29 52.1836Z" fill="#998A50"/>
<path d="M20.1131 58.151C16.5761 58.0216 12.5188 57.8732 8.89827 61.2446C4.43666 65.4382 2.66113 72.3251 2.66113 72.3251C2.66113 72.3251 10.233 70.5898 14.7011 66.4C16.6828 64.5327 18.9041 60.9233 20.3283 58.6092C20.4223 58.4564 20.513 58.3091 20.5998 58.1684L20.3643 58.1601L20.1131 58.151Z" fill="#998A50"/>
<path d="M31.6627 41.8836C27.8669 40.9149 24.5633 39.8399 21.6337 35.9452C18.1539 31.3342 16.734 25.0434 16.734 25.0434C16.734 25.0434 23.9537 26.6658 27.8081 31.9524C29.4149 34.1576 31.4551 40.2072 31.6627 41.8836Z" fill="#998A50"/>
<path d="M32.5953 40.3558C33.017 44.0357 34.836 45.4086 37.1387 46.9835C37.5062 44.8437 37.6406 42.6712 37.54 40.5041C38.7739 41.1305 40.0649 41.6387 41.396 42.0216C41.3698 41.8917 41.3447 41.7625 41.3197 41.634C41.0143 40.0636 40.7313 38.608 38.7538 37.442C38.0926 37.1005 37.4113 36.8027 36.7145 36.5497C36.4478 35.82 36.14 35.1246 35.8253 34.4881C37.2093 35.1045 38.6368 35.6213 40.0968 36.0339C40.0038 35.8033 39.912 35.562 39.8172 35.3129C39.1377 33.5265 38.3072 31.3433 35.7763 29.8785L35.8118 29.8914C33.2918 28.5743 30.5615 27.7052 27.7432 27.3229C27.7432 27.3229 30.0505 31.031 33.1581 33.1045C32.9986 33.8229 32.8344 34.682 32.71 35.6147C32.6527 35.6083 32.5954 35.6022 32.538 35.5964C32.5854 35.6743 32.6335 35.7517 32.6823 35.8286C32.5031 37.2601 32.4231 38.8496 32.5979 40.3629L32.5953 40.3558Z" fill="#998A50"/>
<path d="M22.491 39.6769C19.8649 37.3069 16.8525 34.5882 11.9093 34.8462C5.79255 35.194 0 39.3294 0 39.3294C0 39.3294 6.91695 42.8617 13.0362 42.521C15.7559 42.363 19.7804 41.0244 22.3607 40.1661L22.3653 40.1646C22.5342 40.1084 22.6969 40.0543 22.8526 40.0027C22.7331 39.8954 22.6129 39.7869 22.4919 39.6777L22.491 39.6769Z" fill="#998A50"/>
<path d="M41.8081 34.6313C39.5239 31.4522 37.6852 28.5077 37.9478 23.6434C38.2499 17.8771 41.2111 12.1466 41.2111 12.1466C41.2111 12.1466 45.6973 18.0248 45.2472 24.5491C45.0588 27.27 42.728 33.2139 41.8081 34.6313Z" fill="#998A50"/>
<path d="M31.2061 16.558C35.1587 19.5341 35.7165 23.5508 36.2027 27.0523C36.2252 27.214 36.2475 27.3747 36.2699 27.5341C36.1162 27.4731 35.9553 27.4095 35.7883 27.3435C33.2594 26.3443 29.3148 24.7857 27.1298 23.1605C22.2231 19.4926 19.198 12.3459 19.198 12.3459C19.198 12.3459 26.2968 12.8972 31.2061 16.558Z" fill="#998A50"/>
<path d="M113.22 41C112.956 40.736 112.956 39.636 113.22 39.328L117.092 38.756L128.796 9.98C129.148 9.672 130.292 9.672 130.6 9.98L142.304 38.756L146.176 39.328C146.44 39.636 146.44 40.736 146.176 41H132.052C131.832 40.736 131.832 39.636 132.052 39.328L136.452 38.756L132.888 29.56H123.252L119.732 38.756L124.704 39.328C124.924 39.636 124.924 40.736 124.704 41H113.22ZM128.048 17.108L124.044 27.492H132.096L128.048 17.108ZM174.899 12.884L170.191 12.312C169.927 12.004 169.927 10.904 170.191 10.64H181.807C182.071 10.904 182.071 12.004 181.807 12.312L177.451 12.884V29.912C177.451 36.468 173.051 41.44 165.703 41.44C159.059 41.44 153.691 37.656 153.691 29.384V12.884L149.555 12.312C149.291 12.004 149.291 10.904 149.555 10.64H163.371C163.591 10.904 163.591 12.004 163.371 12.312L159.191 12.884V28.724C159.191 35.236 162.579 37.92 167.199 37.92C171.775 37.92 174.899 34.796 174.899 29.604V12.884ZM212.243 41H194.907C194.687 40.736 194.687 39.636 194.907 39.328L200.803 38.624V12.576C195.171 12.576 192.267 14.468 188.791 19.572C188.131 19.572 187.383 19.044 187.383 18.56L189.891 13.456V10.64H217.215V13.456L219.767 18.56C219.767 19.044 219.019 19.572 218.315 19.572C214.883 14.468 211.979 12.576 206.347 12.576V38.624L212.243 39.328C212.463 39.636 212.463 40.736 212.243 41ZM226.312 41C226.048 40.736 226.048 39.636 226.312 39.328L230.448 38.756V12.884L226.312 12.312C226.048 12.004 226.048 10.904 226.312 10.64H240.084C240.348 10.904 240.348 12.004 240.084 12.312L235.948 12.884V24.588H250.512V12.884L246.376 12.312C246.112 12.004 246.112 10.904 246.376 10.64H260.148C260.412 10.904 260.412 12.004 260.148 12.312L256.012 12.884V38.756L260.148 39.328C260.412 39.636 260.412 40.736 260.148 41H246.376C246.112 40.736 246.112 39.636 246.376 39.328L250.512 38.756V26.656H235.948V38.756L240.084 39.328C240.348 39.636 240.348 40.736 240.084 41H226.312ZM296.879 25.82C296.879 34.532 290.323 41.44 282.315 41.44C274.263 41.44 267.707 34.532 267.707 25.82C267.707 17.108 274.263 10.2 282.315 10.2C290.323 10.2 296.879 17.108 296.879 25.82ZM273.999 25.82C273.999 33.828 276.903 39.064 282.315 39.064C287.683 39.064 290.587 33.828 290.587 25.82C290.587 17.812 287.683 12.576 282.315 12.576C276.903 12.576 273.999 17.812 273.999 25.82ZM314.143 38.756L318.279 39.328C318.499 39.636 318.499 40.736 318.279 41H304.507C304.243 40.736 304.243 39.636 304.507 39.328L308.643 38.756V12.884L304.507 12.312C304.243 12.004 304.243 10.904 304.507 10.64H317.487C324.747 10.64 330.115 13.324 330.115 18.956C330.115 23.796 326.111 26.568 322.283 27.404C325.935 33.256 328.575 36.336 330.863 37.788C332.799 38.932 334.955 39.152 337.331 39.284C337.551 39.592 337.551 40.736 337.331 41H326.375C323.427 38.272 319.731 32.156 317.575 27.492C316.211 27.272 315.067 26.876 314.143 26.392V38.756ZM314.143 12.752V24.896C315.199 25.38 316.123 25.556 317.575 25.556C321.271 25.556 324.351 23.18 324.351 18.736C324.351 14.204 321.007 12.576 316.431 12.576C315.507 12.576 314.143 12.752 314.143 12.752ZM361.934 20.584C359.514 15.48 356.698 12.488 352.87 12.488C349.878 12.488 347.722 14.38 347.722 17.328C347.722 24.808 364.266 21.068 364.266 31.584C364.266 37.26 358.898 41.44 352.65 41.44C349.306 41.44 345.874 40.472 343.146 39.02L343.454 36.292L341.254 30.968C341.298 30.396 342.266 29.736 342.926 29.956C345.698 35.896 348.998 39.108 353.222 39.108C356.214 39.108 359.206 37.392 359.206 33.784C359.206 25.908 343.146 30.132 343.146 19.572C343.146 13.984 348.162 10.2 353.662 10.2C357.05 10.2 359.866 11.256 361.802 12.532L361.626 15.128L363.518 19.572C363.518 20.056 362.594 20.584 361.934 20.584ZM138.388 92H121.052C120.832 91.736 120.832 90.636 121.052 90.328L126.948 89.624V63.576C121.316 63.576 118.412 65.468 114.936 70.572C114.276 70.572 113.528 70.044 113.528 69.56L116.036 64.456V61.64H143.36V64.456L145.912 69.56C145.912 70.044 145.164 70.572 144.46 70.572C141.028 65.468 138.124 63.576 132.492 63.576V89.624L138.388 90.328C138.608 90.636 138.608 91.736 138.388 92ZM181.586 76.82C181.586 85.532 175.03 92.44 167.022 92.44C158.97 92.44 152.414 85.532 152.414 76.82C152.414 68.108 158.97 61.2 167.022 61.2C175.03 61.2 181.586 68.108 181.586 76.82ZM158.706 76.82C158.706 84.828 161.61 90.064 167.022 90.064C172.39 90.064 175.294 84.828 175.294 76.82C175.294 68.812 172.39 63.576 167.022 63.576C161.61 63.576 158.706 68.812 158.706 76.82ZM217.647 81V88.04L219.671 87.556C219.979 87.732 220.067 88.568 219.847 88.832C216.239 90.856 211.135 92.44 206.559 92.44C198.199 92.44 190.587 86.852 190.587 77.348C190.587 67.624 198.463 61.2 207.219 61.2C210.211 61.2 213.247 61.904 215.975 63.224V65.952L218.131 71.408C218.131 71.892 217.295 72.376 216.591 72.376C213.775 67.008 210.871 63.62 206.339 63.62C200.883 63.62 196.703 68.856 196.703 76.776C196.703 85.048 201.191 90.284 206.735 90.284C209.727 90.284 212.279 89.272 212.279 86.016V81L207.967 80.428C207.703 80.12 207.703 79.02 207.967 78.756H221.387C221.607 79.02 221.607 80.12 221.387 80.428L217.647 81ZM228.547 92C228.283 91.736 228.283 90.636 228.547 90.328L232.683 89.756V63.884L228.547 63.312C228.283 63.004 228.283 61.904 228.547 61.64H251.823V64.456L254.375 69.56C254.375 70.044 253.627 70.572 252.923 70.572C249.359 65.38 246.939 63.576 238.183 63.576V75.808H240.603C244.123 75.808 245.091 74.796 245.531 70.308C245.795 70 247.027 70 247.291 70.308L246.807 76.82L247.291 83.068C247.027 83.376 245.795 83.376 245.531 83.068C245.091 78.58 244.123 77.568 240.603 77.568H238.183V90.064C248.215 90.064 251.779 88.128 255.519 82.232C256.223 82.232 256.883 82.628 256.927 83.244L253.979 89.14V92H228.547ZM286.441 92H269.105C268.885 91.736 268.885 90.636 269.105 90.328L275.001 89.624V63.576C269.369 63.576 266.465 65.468 262.989 70.572C262.329 70.572 261.581 70.044 261.581 69.56L264.089 64.456V61.64H291.413V64.456L293.965 69.56C293.965 70.044 293.217 70.572 292.513 70.572C289.081 65.468 286.177 63.576 280.545 63.576V89.624L286.441 90.328C286.661 90.636 286.661 91.736 286.441 92ZM300.511 92C300.247 91.736 300.247 90.636 300.511 90.328L304.647 89.756V63.884L300.511 63.312C300.247 63.004 300.247 61.904 300.511 61.64H314.283C314.547 61.904 314.547 63.004 314.283 63.312L310.147 63.884V75.588H324.711V63.884L320.575 63.312C320.311 63.004 320.311 61.904 320.575 61.64H334.347C334.611 61.904 334.611 63.004 334.347 63.312L330.211 63.884V89.756L334.347 90.328C334.611 90.636 334.611 91.736 334.347 92H320.575C320.311 91.736 320.311 90.636 320.575 90.328L324.711 89.756V77.656H310.147V89.756L314.283 90.328C314.547 90.636 314.547 91.736 314.283 92H300.511ZM341.95 92C341.686 91.736 341.686 90.636 341.95 90.328L346.086 89.756V63.884L341.95 63.312C341.686 63.004 341.686 61.904 341.95 61.64H365.226V64.456L367.778 69.56C367.778 70.044 367.03 70.572 366.326 70.572C362.762 65.38 360.342 63.576 351.586 63.576V75.808H354.006C357.526 75.808 358.494 74.796 358.934 70.308C359.198 70 360.43 70 360.694 70.308L360.21 76.82L360.694 83.068C360.43 83.376 359.198 83.376 358.934 83.068C358.494 78.58 357.526 77.568 354.006 77.568H351.586V90.064C361.618 90.064 365.182 88.128 368.922 82.232C369.626 82.232 370.286 82.628 370.33 83.244L367.382 89.14V92H341.95ZM386.709 89.756L390.845 90.328C391.065 90.636 391.065 91.736 390.845 92H377.073C376.809 91.736 376.809 90.636 377.073 90.328L381.209 89.756V63.884L377.073 63.312C376.809 63.004 376.809 61.904 377.073 61.64H390.053C397.313 61.64 402.681 64.324 402.681 69.956C402.681 74.796 398.677 77.568 394.849 78.404C398.501 84.256 401.141 87.336 403.429 88.788C405.365 89.932 407.521 90.152 409.897 90.284C410.117 90.592 410.117 91.736 409.897 92H398.941C395.993 89.272 392.297 83.156 390.141 78.492C388.777 78.272 387.633 77.876 386.709 77.392V89.756ZM386.709 63.752V75.896C387.765 76.38 388.689 76.556 390.141 76.556C393.837 76.556 396.917 74.18 396.917 69.736C396.917 65.204 393.573 63.576 388.997 63.576C388.073 63.576 386.709 63.752 386.709 63.752Z" fill="black"/>
</svg>
