<svg aria-hidden="true" focusable="false" viewBox="0 0 131 123" role="img" fill="currentColor" class="svg-inline--fa fa-lg" xmlns="http://www.w3.org/2000/svg">
<path d="M42.6389 103.661C39.9236 106.565 36.0697 108.326 31.7777 108.326C23.5442 108.326 16.8873 101.636 16.8873 93.3623C16.8873 86.8489 21.0041 81.3916 26.6975 79.2792C38.6098 74.4381 49.7338 70.1251 56.4782 62.8195L56.3031 63.0835L70.0548 49.3524C74.9598 44.0712 77.8503 37.0296 77.8503 29.2839C77.8503 13.0002 64.7117 -0.290771 48.4199 -0.290771C32.1281 -0.290771 18.9895 12.9122 18.9895 29.2839C18.9895 37.8218 22.5807 45.4795 28.3617 50.8488C28.3617 50.8488 33.0916 55.6899 35.1937 57.8023C38.5222 56.306 42.4638 53.6654 47.3688 49.1764C42.9017 44.7754 37.5587 39.4062 37.5587 39.4062C35.2813 36.7656 33.8799 33.4208 33.8799 29.636C33.8799 21.4501 40.4492 14.8486 48.5951 14.8486C56.741 14.8486 63.3103 21.4501 63.3103 29.636C63.3103 33.6849 61.7337 37.2937 59.106 39.9343L44.3908 54.8977C39.3981 59.5627 33.004 62.7314 25.9092 63.7877C11.7195 65.9882 0.858276 78.487 0.858276 93.2743C0.858276 109.646 14.0844 123.025 30.4639 123.025C38.2594 123.025 45.3542 120.032 50.6097 115.015C50.6097 115.015 90.9013 74.8782 95.5436 70.2131C100.186 65.5481 104.127 64.1398 107.368 64.1398H117.091L117.354 68.8048L129.704 56.482L117.354 44.0712L117.879 49.6165H105.179C101.412 49.6165 94.7553 51.2889 88.2736 57.8023L41.1499 105.157" fill="currentColor"/>
<path d="M60.2447 82.712C47.3689 69.7731 58.4929 80.7755 49.8214 72.0616L61.033 62.4674L71.0183 71.9735L60.2447 82.712Z" fill="currentColor"/>
<path d="M117.441 117.832H107.018C100.536 117.832 93.1786 115.895 85.2078 107.886L73.2955 95.9149L84.2443 85.2645C88.2735 89.2254 93.4413 94.4186 95.018 96.0029C103.164 104.189 112.711 103.133 112.711 103.133H117.616L117.792 98.2034L130.142 110.614L117.792 122.937L117.441 117.832Z" fill="currentColor"/>
</svg>
