<svg width="128" height="128" viewBox="0 0 128 128" fill="none" xmlns="http://www.w3.org/2000/svg">
<rect width="128" height="128" fill="white"/>
<path d="M73.4956 30.3699C75.9814 26.4039 78.8329 21.8543 77.3589 15.4762C75.4976 7.59065 68.7724 1 68.7724 1C68.7724 1 65.7587 10.8218 67.6113 18.7124C68.4432 22.2179 71.115 27.1507 72.8279 30.3133L72.8289 30.3151L72.8369 30.3298C72.9468 30.5328 73.0527 30.7284 73.154 30.9158C73.2338 30.7878 73.3143 30.6593 73.3952 30.5302L73.4875 30.3828L73.4933 30.3735L73.4956 30.3699Z" fill="#998A50"/>
<path d="M72.7293 42.8226C73.1187 37.6561 73.7601 33.1062 78.164 28.3936C83.3753 22.7993 91.251 19.5005 91.251 19.5005C91.251 19.5005 90.7972 29.2765 84.7911 35.5143C82.2857 38.115 74.8673 42.1659 72.7293 42.8226Z" fill="#998A50"/>
<path fill-rule="evenodd" clip-rule="evenodd" d="M58.9857 52.2061C57.5528 53.0667 56.3768 53.9765 55.6066 55.231C55.5311 54.268 55.3865 53.3093 55.173 52.3623C55.173 52.3623 53.1692 53.7288 51.7997 57.6312L51.7826 57.5842C51.2383 59.1646 50.9223 60.6175 51.1387 62.0736C50.4618 61.3845 49.7348 60.743 48.9625 60.1548C48.9625 60.1548 48.306 62.4897 49.7656 66.3594L49.7223 66.3343C50.3212 67.8949 51.0131 69.2109 52.1149 70.1872C51.1534 70.0944 50.1841 70.0704 49.2144 70.1163C49.2144 70.1163 50.2125 72.3269 53.818 74.3528L53.7688 74.3615C55.2308 75.1718 56.6068 75.7351 58.0783 75.7747C57.2822 76.3218 56.5243 76.9264 55.811 77.585C55.811 77.585 57.9965 78.6366 62.0607 77.8708L62.0286 77.9091C63.6694 77.59 65.0855 77.137 66.2382 76.2214C65.98 77.1522 65.7881 78.1026 65.6651 79.0655C65.6651 79.0655 68.0153 78.4662 70.6362 75.2669L70.6361 75.3169C71.6879 74.0178 72.4815 72.7604 72.7758 71.3181C73.1764 72.1971 73.6404 73.0484 74.1651 73.8651C74.1651 73.8651 75.5801 71.8953 75.5312 67.7598L75.5633 67.7981C75.5338 66.1269 75.3334 64.6536 74.6317 63.3595C75.5036 63.7753 76.4063 64.1292 77.3333 64.4175C77.3333 64.4175 77.1509 61.999 74.455 58.8626L74.5042 58.8713C73.4073 57.6101 72.3068 56.6104 70.9374 56.0702C71.8726 55.8282 72.7915 55.519 73.6869 55.1439C73.6869 55.1439 71.9925 53.4086 67.9113 52.7391L67.9546 52.7141C66.3068 52.4536 64.8236 52.395 63.4298 52.8586C63.9901 52.0732 64.495 51.2469 64.9396 50.3854C64.9396 50.3854 62.5262 50.1441 58.9686 52.253L58.9857 52.2061ZM63 75C68.5229 75 73 70.5229 73 65C73 59.4772 68.5229 55 63 55C57.4772 55 53 59.4772 53 65C53 70.5229 57.4772 75 63 75Z" fill="#998A50"/>
<path d="M74.9359 43.6851C70.2348 45.0822 68.8634 47.7673 67.3399 51.1291C70.2145 51.1147 73.0781 50.7891 75.8805 50.1587C75.3478 51.9098 74.9823 53.7083 74.7894 55.53C74.9527 55.4659 75.1154 55.4034 75.2772 55.3413C77.2546 54.5817 79.0874 53.8777 80.1525 51.0338C80.4456 50.094 80.6771 49.1381 80.8466 48.1724C81.7368 47.6569 82.5726 47.0958 83.3301 46.5393C82.8449 48.4837 82.4996 50.4618 82.2976 52.4583C82.5769 52.284 82.8705 52.1088 83.1735 51.928C85.3463 50.6313 88.0016 49.0468 89.3292 45.4133L89.3205 45.4626C90.4578 41.8772 90.9627 38.1213 90.8126 34.3629C90.8126 34.3629 86.5087 38.2222 84.5203 42.747C83.5468 42.7048 82.3889 42.689 81.1442 42.7419C81.1393 42.6658 81.134 42.5898 81.1284 42.5137C81.0378 42.5934 80.9479 42.6739 80.8589 42.7551C78.951 42.8516 76.8602 43.1138 74.9272 43.69L74.9359 43.6851Z" fill="#998A50"/>
<path d="M70.6594 32.8752C71.9782 36.5119 70.9628 39.4326 70.1319 41.8226C70.016 42.1559 69.9037 42.4788 69.8019 42.7919C68.6772 41.1386 67.6733 39.4079 66.7972 37.6134C66.574 38.5252 66.2939 39.4903 65.9431 40.4551C66.4309 41.2997 66.8654 42.1762 67.243 43.0796C68.2552 45.9428 67.3039 47.6603 66.2775 49.5132L66.2761 49.5156L66.2703 49.5261L66.2657 49.5344C66.1856 49.679 66.1051 49.8245 66.0251 49.9714C65.0036 48.4544 64.1286 46.8447 63.4117 45.1639C61.6706 47.4442 59.6874 49.5307 57.4964 51.3863C56.5042 47.8313 55.83 44.8926 58.535 40.8017L58.5316 40.8111C59.6384 39.1341 61.0654 37.5954 62.4603 36.2989C62.4769 36.1745 62.4946 36.0501 62.5136 35.9259L62.5868 36.0014C62.6176 36.0333 62.6483 36.0653 62.679 36.0974C63.5967 35.2587 64.4924 34.5279 65.2649 33.9348C63.875 29.1885 64.6922 23.457 64.6922 23.457C67.2232 26.2395 69.2508 29.4411 70.6844 32.9186L70.6594 32.8752Z" fill="#998A50"/>
<path d="M84.5202 54.3637C88.1397 50.6564 91.5559 47.5834 97.9587 46.8045C105.547 45.8692 113.7 48.405 113.7 48.405C113.7 48.405 107.068 55.6018 98.4577 56.5191C94.8667 56.9007 86.5801 55.235 84.5202 54.3637Z" fill="#998A50"/>
<path d="M85.6561 56.4428C81.1569 54.491 78.3804 55.6663 75.0523 57.2621C77.2636 59.0989 79.6664 60.6903 82.2183 62.0089C80.6845 63.0078 79.2484 64.1505 77.9296 65.4219C78.0959 65.4779 78.2608 65.5346 78.4246 65.591C80.4276 66.2802 82.2841 66.9191 84.9282 65.4254C85.7568 64.8938 86.5486 64.3105 87.2992 63.6797C88.3124 63.8571 89.3134 63.9645 90.2514 64.0252C88.6298 65.2027 87.0937 66.496 85.6555 67.8955C85.9813 67.9414 86.3185 67.9959 86.6665 68.0521C89.1645 68.4557 92.2179 68.949 95.5705 67.0191L95.5322 67.0512C98.7082 65.0359 101.509 62.4834 103.81 59.508C103.81 59.508 98.0327 59.6975 93.6009 61.8853C92.8823 61.2273 92.0055 60.4708 91.0181 59.7111C91.0632 59.6497 91.108 59.5881 91.1526 59.5262C91.032 59.529 90.9115 59.5329 90.791 59.5379C89.2676 58.3854 87.4975 57.2422 85.6463 56.441L85.6561 56.4428Z" fill="#998A50"/>
<path d="M93.1123 45.3174C97.5659 43.8773 102.675 42.2253 105.646 36.3921C109.289 29.1553 108.374 19.7836 108.374 19.7836C108.374 19.7836 99.7518 25.3699 96.0986 32.605C94.4824 35.8251 93.3581 41.321 92.6372 44.8447L92.6367 44.8471C92.5893 45.079 92.5436 45.3024 92.4996 45.516C92.7023 45.45 92.9066 45.3839 93.1123 45.3174Z" fill="#998A50"/>
<path d="M86.1333 70.7838C91.289 70.2707 95.8812 70.1128 101.287 73.6321C107.7 77.7935 112.316 84.9772 112.316 84.9772C112.316 84.9772 102.609 86.2268 95.424 81.3943C92.4279 79.3783 87.1511 72.7754 86.1333 70.7838Z" fill="#998A50"/>
<path d="M85.6669 73.1066C83.4751 68.7193 80.5927 67.8347 77.0176 66.9177C77.5307 69.7462 78.3483 72.5098 79.4554 75.1604C77.6384 74.9396 75.8038 74.8917 73.9762 75.0179C74.0677 75.1676 74.1575 75.317 74.2467 75.4655C75.3379 77.2811 76.3494 78.9639 79.335 79.5194C80.3114 79.6449 81.2929 79.7071 82.2734 79.7063C82.9355 80.4936 83.6331 81.2193 84.3127 81.8688C82.3136 81.7283 80.3056 81.7316 78.3043 81.8791C78.5245 82.1239 78.748 82.3826 78.9786 82.6496C80.6326 84.5645 82.6539 86.9046 86.4626 87.5814L86.4126 87.5814C90.141 88.0793 93.9275 87.9247 97.6028 87.1246C97.6028 87.1246 93.0552 83.5558 88.254 82.3828C88.1266 81.4168 87.9412 80.2737 87.6732 79.057L87.7705 79.0331L87.8345 79.0171L87.8951 79.0018C87.8009 78.9264 87.7061 78.852 87.6106 78.7784C87.1845 76.9162 86.5635 74.9026 85.6605 73.0989L85.6669 73.1066Z" fill="#998A50"/>
<path d="M98.5301 69.3775C102.867 71.1373 107.843 73.156 113.868 70.5975C121.311 67.396 126.635 59.6291 126.635 59.6291C126.635 59.6291 116.439 58.3656 108.99 61.5594C105.682 62.987 101.288 66.4741 98.4703 68.7098C98.2842 68.8575 98.1047 69 97.9331 69.1358C98.1308 69.2155 98.3298 69.2962 98.5301 69.3775Z" fill="#998A50"/>
<path d="M76.8136 84.3987C81.0927 87.3199 84.7119 90.1509 86.5901 96.3215C88.8281 103.632 87.7456 112.102 87.7456 112.102C87.7456 112.102 79.5071 106.819 77.1095 98.4988C76.1105 95.0285 76.3129 86.5785 76.8136 84.3987Z" fill="#998A50"/>
<path d="M74.9631 85.8782C76.1045 81.1085 74.4652 78.578 72.3161 75.5774C70.8909 78.0739 69.7406 80.7163 68.8849 83.4584C67.6349 82.1213 66.2603 80.9053 64.7794 79.8271C64.7533 79.9995 64.7262 80.1707 64.6993 80.3408L64.6988 80.3439C64.3676 82.4361 64.0605 84.3753 65.9905 86.72C66.6578 87.4438 67.3696 88.1224 68.1212 88.7522C68.1223 89.7808 68.1902 90.7852 68.2932 91.7195C66.8521 90.3269 65.3119 89.0386 63.6841 87.8651C63.6954 88.1941 63.7003 88.536 63.7053 88.8887C63.7413 91.4188 63.7854 94.5107 66.2678 97.4775L66.2295 97.4454C68.7654 100.223 71.7653 102.539 75.0949 104.289C75.0949 104.289 73.9056 98.6317 70.9819 94.6468C71.5052 93.8249 72.0981 92.8302 72.6749 91.7259L72.7556 91.7657L72.8135 91.794L72.8803 91.8263C72.8566 91.708 72.8319 91.59 72.806 91.4722C73.6767 89.7719 74.4954 87.8303 74.9631 85.8682V85.8782Z" fill="#998A50"/>
<path d="M87.2137 91.2905C89.4047 95.4266 91.9182 100.171 98.1785 102.085C105.938 104.417 115.009 101.89 115.009 101.89C115.009 101.89 108.011 94.3676 100.251 92.0254C96.7997 90.9925 91.1919 90.839 87.5966 90.7406L86.9118 90.7216C87.0119 90.9097 87.1124 91.0994 87.2137 91.2905Z" fill="#998A50"/>
<path d="M60.9225 88.8368C62.3225 93.8252 63.275 98.3204 60.7471 104.254C57.7619 111.293 51.4882 117.085 51.4882 117.085C51.4882 117.085 48.5731 107.743 52.0853 99.8278C53.5508 96.5274 59.1377 90.1848 60.9225 88.8368Z" fill="#998A50"/>
<path d="M58.554 88.7806C62.4944 85.8607 62.8654 82.8685 63.148 79.1885C60.4515 80.1846 57.8717 81.4694 55.4535 83.0197C55.3556 81.192 55.0843 79.3769 54.6429 77.599C54.5113 77.715 54.3798 77.8294 54.249 77.9431C52.6504 79.3328 51.1686 80.6209 51.1397 83.6576C51.1855 84.641 51.2946 85.6184 51.4655 86.5839C50.8051 87.3726 50.2114 88.1856 49.6898 88.9675C49.4811 86.9743 49.1295 84.9974 48.6369 83.052C48.4341 83.3113 48.2179 83.5764 47.9951 83.8498C46.3963 85.8111 44.4425 88.2078 44.4369 92.0762L44.4282 92.0269C44.5849 95.7851 45.3943 99.4873 46.82 102.968C46.82 102.968 49.5455 97.8701 49.8675 92.9382C50.7968 92.645 51.8903 92.2642 53.042 91.789C53.0726 91.8588 53.1036 91.9285 53.1349 91.998C53.1928 91.8922 53.2497 91.7858 53.3056 91.679C55.0656 90.9363 56.9408 89.9752 58.5604 88.7729L58.554 88.7806Z" fill="#998A50"/>
<path d="M64.4588 100.801C63.4784 105.378 62.3537 110.629 65.9191 116.119C70.3636 122.893 78.9365 126.788 78.9365 126.788C78.9365 126.788 78.4115 116.528 73.9734 109.745C71.9933 106.735 67.7964 103.013 65.1057 100.626C64.9279 100.469 64.7568 100.317 64.5933 100.172C64.5491 100.38 64.5041 100.59 64.4588 100.801Z" fill="#998A50"/>
<path d="M45.8969 82.0212C43.7626 86.7424 41.6026 90.7979 35.8516 93.7185C29.0402 97.1911 20.5112 97.595 20.5112 97.595C20.5112 97.595 24.2837 88.5648 32.0621 84.7596C35.3063 83.1735 43.6632 81.9064 45.8969 82.0212Z" fill="#998A50"/>
<path d="M44.1187 80.4556C49.0141 80.7519 51.2217 78.6984 53.8038 76.0611C51.0979 75.0908 48.2959 74.4165 45.4469 74.0496C46.5469 72.5866 47.5059 71.0219 48.3107 69.3762C48.1353 69.3805 47.961 69.3836 47.7877 69.3866C45.6698 69.4234 43.7067 69.4576 41.7325 71.7651C41.1355 72.5479 40.5908 73.3667 40.101 74.2162C39.0881 74.3958 38.1108 74.6369 37.2085 74.9006C38.3299 73.2397 39.3314 71.4992 40.2046 69.6925C39.8825 69.7607 39.5467 69.8248 39.2001 69.891C36.7147 70.3656 33.6774 70.9455 31.1864 73.9051L31.2114 73.8618C28.9156 76.8414 27.1557 80.1976 26.0103 83.7803C26.0103 83.7803 31.3751 81.6273 34.7922 78.0564C35.6924 78.4292 36.7749 78.8405 37.9626 79.2168C37.9412 79.29 37.9201 79.3632 37.8994 79.4366C38.0118 79.3927 38.1237 79.3479 38.2352 79.302C40.0608 79.8644 42.1151 80.3337 44.1286 80.4538L44.1187 80.4556Z" fill="#998A50"/>
<path d="M40.9144 93.4595C37.2213 96.3351 32.9848 99.6339 32.1868 106.131C31.2365 114.178 35.2997 122.672 35.2997 122.672C35.2997 122.672 41.4931 114.475 42.4533 106.427C42.8714 102.848 42.0494 97.2991 41.5225 93.7413L41.4223 93.0634C41.2545 93.1947 41.085 93.3266 40.9144 93.4595Z" fill="#998A50"/>
<path d="M38.7684 67.1414C34.0986 69.3859 29.837 71.104 23.5542 69.6443C16.1044 67.9258 9.31147 62.7524 9.31147 62.7524C9.31147 62.7524 18.0061 58.2603 26.4105 60.3456C29.9152 61.2162 37.1311 65.6177 38.7684 67.1414Z" fill="#998A50"/>
<path d="M38.4127 64.7991C41.9721 68.173 44.9833 68.0191 48.6565 67.6588C47.2075 65.176 45.4945 62.8584 43.5481 60.7459C45.3311 60.3323 47.0716 59.7501 48.7459 59.0069C48.6094 58.8979 48.4744 58.7886 48.3403 58.68L48.3387 58.6787C46.6927 57.3455 45.1669 56.1097 42.1713 56.6082C41.2108 56.8241 40.2672 57.1011 39.346 57.437C38.4546 56.9234 37.551 56.4799 36.6903 56.1018C38.6171 55.5504 40.503 54.861 42.3333 54.0383C42.0427 53.8836 41.7443 53.7168 41.4363 53.5447C39.2273 52.3105 36.5279 50.8023 32.7172 51.4681L32.7642 51.451C29.0903 52.2576 25.5847 53.6971 22.4042 55.7052C22.4042 55.7052 27.8978 57.5047 32.8108 56.9659C33.2607 57.8302 33.8256 58.8411 34.4934 59.8929C34.43 59.9351 34.3667 59.9777 34.3037 60.0206C34.418 60.0592 34.5326 60.0968 34.6474 60.1333C35.6844 61.7377 36.9563 63.4177 38.4214 64.8041L38.4127 64.7991Z" fill="#998A50"/>
<path d="M27.5989 72.7004C22.9215 72.5291 17.5557 72.3326 12.7677 76.7966C6.86735 82.3493 4.51927 91.4681 4.51927 91.4681C4.51927 91.4681 14.5328 89.1705 20.4418 83.6228C23.0625 81.1504 26.0001 76.3712 27.8836 73.3071C28.0079 73.1048 28.1278 72.9097 28.2426 72.7235L27.9312 72.7125L27.5989 72.7004Z" fill="#998A50"/>
<path d="M42.8731 51.161C37.8531 49.8784 33.4842 48.4549 29.61 43.2981C25.008 37.1927 23.1302 28.8632 23.1302 28.8632C23.1302 28.8632 32.678 31.0114 37.7753 38.0113C39.9004 40.9311 42.5984 48.9413 42.8731 51.161Z" fill="#998A50"/>
<path d="M44.1063 49.1381C44.664 54.0106 47.0695 55.8284 50.1149 57.9137C50.6009 55.0804 50.7786 52.2039 50.6456 49.3345C52.2773 50.1638 53.9847 50.8368 55.745 51.3438C55.7104 51.1718 55.6771 51.0007 55.6441 50.8306C55.2402 48.7512 54.8659 46.8238 52.2508 45.28C51.3763 44.8279 50.4754 44.4335 49.5538 44.0986C49.2011 43.1323 48.7941 42.2116 48.3778 41.3687C50.2082 42.1849 52.096 42.8692 54.0269 43.4156C53.9038 43.1102 53.7824 42.7907 53.6571 42.4609C52.7584 40.0956 51.6601 37.2049 48.3131 35.2652L48.3601 35.2824C45.0274 33.5385 41.4167 32.3877 37.6895 31.8814C37.6895 31.8814 40.7409 36.7912 44.8506 39.5368C44.6396 40.488 44.4225 41.6255 44.258 42.8604C44.1822 42.852 44.1064 42.844 44.0305 42.8363C44.0932 42.9394 44.1569 43.0418 44.2214 43.1436C43.9843 45.0392 43.8787 47.1437 44.1097 49.1475L44.1063 49.1381Z" fill="#998A50"/>
<path d="M30.7437 48.2391C27.2708 45.1011 23.2869 41.5013 16.7496 41.8429C8.66048 42.3034 1 47.7791 1 47.7791C1 47.7791 10.1475 52.4561 18.24 52.005C21.8367 51.7958 27.1589 50.0234 30.5713 48.887L30.5774 48.8849C30.8008 48.8106 31.0159 48.7389 31.2219 48.6706C31.0638 48.5284 30.9049 48.3848 30.7449 48.2403L30.7437 48.2391Z" fill="#998A50"/>
<path d="M56.29 41.5584C53.2692 37.349 50.8376 33.4502 51.1849 27.0095C51.5844 19.3744 55.5005 11.7868 55.5005 11.7868C55.5005 11.7868 61.4333 19.57 60.8381 28.2087C60.5889 31.8114 57.5065 39.6816 56.29 41.5584Z" fill="#998A50"/>
<path d="M42.2691 17.6278C47.4963 21.5685 48.234 26.8869 48.877 31.5232C48.9067 31.7373 48.9362 31.95 48.9659 32.1611C48.7626 32.0803 48.5499 31.9962 48.329 31.9088C44.9845 30.5857 39.7679 28.5219 36.8783 26.3701C30.3894 21.5135 26.3888 12.0506 26.3888 12.0506C26.3888 12.0506 35.7768 12.7806 42.2691 17.6278Z" fill="#998A50"/>
</svg>
